<?xml version="1.0" encoding="UTF-8"?>
<!-- Generated by Pixelmator Pro 3.7 -->
<svg width="4530" height="4530" viewBox="0 0 4530 4530" xmlns="http://www.w3.org/2000/svg">
    <path id="cdn" fill="#ffffff" fill-rule="evenodd" stroke="none" d="M 3733.751465 938.15332 L 3225.15332 2263.096924 L 3032.056641 2188.974121 L 3540.655029 864.030518 L 3733.751465 938.15332 Z M 698 2023.937256 L -0.714783 1620.53418 L -0.406372 1620 L -1.105103 1620 L -1.105103 1505 L -0.602478 1505 L -0.846313 1504.577637 L 697.706421 1101.268311 L 797.706421 1274.473389 L 298.798401 1562.518066 L 798 1850.732178 L 698 2023.937256 Z M 3829.89502 2023.937256 L 4528.609863 1620.53418 L 4528.30127 1620 L 4529 1620 L 4529 1505 L 4528.497559 1505 L 4528.741211 1504.577637 L 3830.188721 1101.268311 L 3730.188477 1274.473389 L 4229.09668 1562.518066 L 3729.89502 1850.732178 L 3829.89502 2023.937256 Z M 2543.705566 1995.01709 C 2593.149658 2014.095459 2650.749023 2023.634277 2716.505859 2023.634277 C 2789.218506 2023.634277 2852.756836 2011.156494 2907.123047 1986.199951 C 2961.489014 1961.243408 3003.732178 1926.32666 3033.854004 1881.448242 C 3063.976318 1836.570068 3079.037109 1784.731445 3079.037109 1725.931152 C 3079.037109 1674.087158 3068.593262 1631.365723 3047.705566 1597.765625 C 3026.818115 1564.165283 2999.635742 1537.226563 2966.157471 1516.948242 C 2932.679199 1496.670166 2896.740234 1480.53125 2858.340088 1468.53125 C 2819.939941 1456.53125 2782.862305 1446.331055 2747.105713 1437.931152 C 2709.193115 1428.331055 2678.476318 1419.387451 2654.954346 1411.100098 C 2631.432129 1402.8125 2614.449463 1393.390625 2604.005859 1382.834473 C 2593.562012 1372.278076 2588.340088 1359.078125 2588.340088 1343.234375 C 2588.340088 1321.165283 2599.622803 1303.409668 2622.188721 1289.965576 C 2644.75415 1276.521729 2673.314941 1269.799805 2707.871338 1269.799805 C 2747.47168 1269.799805 2784.788574 1278.560791 2819.822754 1296.082764 C 2854.857422 1313.604736 2883.661865 1339.399658 2906.236816 1373.46875 L 3044.471191 1264.765625 C 3011.11499 1211.233887 2965.45459 1170.551514 2907.488525 1142.717041 C 2849.522461 1114.882813 2785.140381 1100.965576 2714.340088 1100.965576 C 2614.027344 1100.965576 2533.210693 1125.08252 2471.888672 1173.317139 C 2410.566406 1221.552002 2379.905762 1285.155762 2379.905762 1364.131348 C 2379.905762 1410.443848 2389.205566 1449.077881 2407.805908 1480.03418 C 2426.405762 1510.990723 2450.766357 1536.368408 2480.888672 1556.168701 C 2511.010742 1575.96875 2543.888428 1592.051514 2579.522949 1604.416992 C 2615.157471 1616.782959 2649.77417 1627.521729 2683.374512 1636.634277 C 2715.774658 1644.790771 2745.174316 1653.612305 2771.574463 1663.100098 C 2797.974609 1672.587646 2819.218262 1684.04834 2835.305908 1697.48291 C 2851.393555 1710.917236 2859.437012 1728.677979 2859.437012 1750.765625 C 2859.437012 1776.434326 2846.954346 1798.212402 2821.988525 1816.100098 C 2797.022949 1833.987549 2762.462158 1842.931152 2718.305908 1842.931152 C 2662.393066 1842.931152 2615.537109 1828.770264 2577.736816 1800.448242 C 2539.937012 1772.126221 2510.349609 1741.287598 2488.974609 1707.931152 L 2336.340088 1841.131348 C 2357.471436 1867.531494 2384.954102 1895.009033 2418.788574 1923.56543 C 2452.623047 1952.121826 2494.261719 1975.938965 2543.705566 1995.01709 Z M 927.724487 1118.599854 L 927.724487 2006 L 1151.993286 2006 L 1151.993286 1557.068848 C 1151.993286 1498.043457 1158.59314 1449.270264 1171.793213 1410.748535 C 1184.993286 1372.226318 1204.493164 1343.304688 1230.293213 1323.98291 C 1256.093384 1304.660645 1287.714966 1295 1325.158936 1295 C 1371.47168 1295 1407.171387 1311.677979 1432.259033 1345.03418 C 1457.346436 1378.390869 1469.890137 1428.668457 1469.890137 1495.868652 L 1469.890137 2006 L 1693.090088 2006 L 1693.090088 1557.068848 C 1693.090088 1498.043457 1699.390137 1449.148682 1711.98999 1410.382813 C 1724.590088 1371.616943 1743.307129 1342.695313 1768.141846 1323.617188 C 1792.976074 1304.539063 1823.758789 1295 1860.48999 1295 C 1894.559082 1295 1922.575928 1302.73877 1944.542114 1318.217285 C 1966.507446 1333.695313 1983.068481 1356.734131 1994.224731 1387.334473 C 2005.380981 1417.934326 2010.959106 1455.799805 2010.959106 1500.931152 L 2010.959106 2006 L 2234.525146 2006 L 2234.525146 1446.56543 C 2234.525146 1387.765137 2223.425049 1332.144043 2201.224854 1279.699951 C 2179.024658 1227.256104 2144.464111 1184.356201 2097.542236 1151 C 2050.619873 1117.643555 1989.115845 1100.965576 1913.027588 1100.965576 C 1863.358643 1100.965576 1816.024658 1111.526367 1771.024658 1132.648438 C 1726.02417 1153.770264 1685.128906 1184.104736 1654 1235 C 1653.876709 1235.201416 1653.827515 1235.093262 1653.539185 1234.459229 C 1652.812256 1232.860107 1650.564819 1227.91748 1641.776123 1216.165771 C 1610.601563 1174.480957 1574.037109 1144.770264 1531.793213 1127.248291 C 1489.549316 1109.726563 1445.393555 1100.965576 1399.324463 1100.965576 C 1369.080566 1100.965576 1338.537109 1105.404541 1307.693237 1114.282959 C 1276.849243 1123.160889 1247.571411 1138.22168 1219.858765 1159.465576 C 1192.146118 1180.709473 1169.821777 1205.921387 1152 1240 C 1151.284302 1241.368408 1151.993286 1118.599854 1151.993286 1118.599854 L 927.724487 1118.599854 Z M 2861.14917 3650 L 2861.14917 2749.781982 L 3088.657227 2749.781982 L 3089 2870 C 3089 2870 3090.844482 2859.651367 3121.525391 2826.659424 C 3152.206055 2793.66748 3187.693848 2769.625488 3227.989746 2754.532471 C 3268.2854 2739.439453 3309.736328 2731.893066 3352.343018 2731.893066 C 3454.599609 2731.893066 3534.453125 2760.804199 3591.905762 2818.62793 C 3649.358398 2876.45166 3678.084473 2957.583984 3678.084473 3062.027832 L 3678.084473 3650 L 3450.576172 3650 L 3450.576172 3146.023926 C 3450.576172 3070.796387 3437.123779 3015.774414 3410.21875 2980.956543 C 3383.313721 2946.138672 3341.25415 2928.72998 3284.039307 2928.72998 C 3240.709717 2928.72998 3204.61792 2938.834717 3175.763184 2959.044434 C 3146.908447 2979.25415 3125.17749 3010.723877 3110.569336 3053.454346 C 3095.961182 3096.184814 3088.657227 3151.140137 3088.657227 3218.322266 L 3088.657227 3650 Z M 2154.126709 3667.88916 C 2074.752441 3667.88916 2006.335083 3647.499023 1948.872925 3606.718018 C 1891.410645 3565.937256 1847.282715 3510.063965 1816.487915 3439.096924 C 1785.692993 3368.129883 1770.295776 3288.091064 1770.295776 3198.978027 C 1770.295776 3100.373535 1787.457153 3016.378418 1821.780396 2946.98999 C 1856.10376 2877.601563 1902.480835 2824.405762 1960.913086 2787.400391 C 2019.345337 2750.395264 2083.749268 2731.893066 2154.126709 2731.893066 C 2202.572998 2731.893066 2247.856445 2741.874023 2289.978271 2761.836426 C 2332.100098 2781.798828 2368.134766 2811.865723 2398.083008 2852.038086 C 2403.773193 2859.670654 2412.044189 2873.463379 2412 2873 C 2411.948975 2872.464111 2411.963623 2377.277832 2411.963623 2377.277832 L 2637.645752 2377.277832 L 2637.645752 3650 L 2411.963623 3650 L 2412 3529 C 2412 3529 2411.04248 3530.310547 2395.144531 3552.123535 C 2364.080811 3594.744629 2325.694824 3623.45166 2283.943848 3641.226563 C 2242.192871 3659.001709 2198.920898 3667.88916 2154.126709 3667.88916 Z M 2215.839844 3459.725098 C 2260.386719 3459.725098 2298.789551 3448.95459 2331.048828 3427.413574 C 2363.308594 3405.872314 2388.263672 3375.500977 2405.915039 3336.298828 C 2423.566406 3297.09668 2432.39209 3251.32373 2432.39209 3198.978027 C 2432.39209 3146.632324 2423.566406 3101.044678 2405.915039 3062.213379 C 2388.263672 3023.382324 2363.308594 2993.191895 2331.048828 2971.641113 C 2298.789551 2950.090332 2260.386719 2939.314941 2215.839844 2939.314941 C 2172.015625 2939.314941 2133.669922 2949.904785 2100.801758 2971.084473 C 2067.933594 2992.264404 2042.550537 3022.274414 2024.651855 3061.11499 C 2006.753174 3099.955566 1997.803955 3145.909668 1997.803955 3198.978027 C 1997.803955 3252.046387 2006.753174 3298.180908 2024.651855 3337.383057 C 2042.550537 3376.585205 2067.933594 3406.775879 2100.801758 3427.955566 C 2133.669922 3449.135254 2172.015625 3459.725098 2215.839844 3459.725098 Z M 1254.998901 3667.88916 C 1182.205811 3667.88916 1118.477173 3654.988281 1063.811035 3629.186523 C 1009.144836 3603.384521 963.433472 3568.324707 926.675537 3524.005859 C 889.917603 3479.687256 862.408997 3429.529785 844.148926 3373.532227 C 825.888794 3317.534668 816.758911 3259.350342 816.758911 3198.978027 C 816.758911 3139.081055 825.888794 3081.134766 844.148926 3025.137207 C 862.408997 2969.139648 889.917603 2919.16748 926.675537 2875.219727 C 963.433472 2831.271729 1009.144836 2796.397461 1063.811035 2770.595703 C 1118.477173 2744.793701 1182.205811 2731.893066 1254.998901 2731.893066 C 1346.052002 2731.893066 1425.177979 2753.681152 1492.378906 2797.258057 C 1559.579834 2840.834961 1609.48999 2907.42627 1642.11084 2997.033691 L 1443.790161 3075.180908 C 1429.676636 3032.07959 1407.584229 2996.895996 1377.512085 2969.629395 C 1347.439941 2942.363037 1306.602661 2928.72998 1254.998901 2928.72998 C 1205.563477 2928.72998 1165.206421 2941.816162 1133.926514 2967.989014 C 1102.646606 2994.161621 1079.764771 3027.818848 1065.280396 3068.960938 C 1050.795898 3110.103516 1043.553833 3153.441895 1043.553833 3198.978027 C 1043.553833 3244.51416 1050.795898 3288.156982 1065.280396 3329.907959 C 1079.764771 3371.658936 1102.646606 3405.496582 1133.926514 3431.422119 C 1165.206421 3457.347656 1205.563477 3470.310059 1254.998901 3470.310059 C 1306.602661 3470.310059 1347.439941 3456.800781 1377.512085 3429.781494 C 1407.584229 3402.762207 1429.676636 3367.464844 1443.790161 3323.887695 L 1642.11084 3402.034912 C 1609.48999 3491.623535 1559.579834 3558.328857 1492.378906 3602.153076 C 1425.177979 3645.977295 1346.052002 3667.88916 1254.998901 3667.88916 Z"/>
</svg>
