<svg width='25' height='25' viewBox="0 0 24 24" fill="#ffffff"
    xmlns="http://www.w3.org/2000/svg">
    <g clip-path="url(#clip0_405_371)">
        <path
            d="M12.0005 0C8.7387 0 8.3322 0.01575 7.0557 0.06975C5.77395 0.13275 4.90695 0.3315 4.14195 0.6285C3.35295 0.9375 2.68095 1.34775 2.0172 2.01525C1.34895 2.679 0.934953 3.351 0.630453 4.14C0.333453 4.905 0.134703 5.772 0.0717031 7.05375C0.0139531 8.331 0.00195312 8.73675 0.00195312 11.9985C0.00195312 15.2603 0.0177031 15.6667 0.0717031 16.9432C0.134703 18.2212 0.333453 19.092 0.630453 19.857C0.939453 20.646 1.3497 21.318 2.0172 21.9818C2.68095 22.65 3.35295 23.064 4.14195 23.3685C4.90695 23.6618 5.7777 23.8642 7.0557 23.9272C8.33295 23.985 8.7387 23.997 12.0005 23.997C15.2622 23.997 15.6687 23.9812 16.9452 23.9272C18.2232 23.8642 19.094 23.661 19.859 23.3685C20.648 23.0595 21.32 22.6493 21.9837 21.9818C22.652 21.318 23.066 20.6497 23.3705 19.857C23.6637 19.092 23.8662 18.2212 23.9292 16.9432C23.987 15.666 23.999 15.2603 23.999 11.9985C23.999 8.73675 23.9832 8.33025 23.9292 7.05375C23.8662 5.77575 23.663 4.9005 23.3705 4.14C23.0615 3.351 22.6512 2.679 21.9837 2.01525C21.32 1.347 20.6517 0.933 19.859 0.6285C19.094 0.3315 18.2232 0.13275 16.9452 0.06975C15.668 0.012 15.2622 0 12.0005 0V0ZM12.0005 2.16C15.2037 2.16 15.5862 2.17575 16.8522 2.22975C18.02 2.2845 18.656 2.4795 19.0782 2.6445C19.6415 2.86275 20.0352 3.12075 20.4612 3.54225C20.879 3.96 21.137 4.35825 21.3552 4.9215C21.5202 5.34375 21.7152 5.97975 21.77 7.1475C21.824 8.4135 21.8397 8.79675 21.8397 11.9992C21.8397 15.2017 21.824 15.585 21.7655 16.851C21.7025 18.0188 21.5075 18.6548 21.3432 19.077C21.116 19.6403 20.8625 20.034 20.444 20.46C20.0217 20.8778 19.6197 21.1358 19.061 21.354C18.644 21.519 17.999 21.714 16.8267 21.7687C15.554 21.8227 15.179 21.8385 11.9675 21.8385C8.75595 21.8385 8.3817 21.8227 7.10745 21.7642C5.9397 21.7012 5.29545 21.5062 4.8732 21.342C4.3032 21.1147 3.91245 20.8612 3.49395 20.4427C3.0717 20.0205 2.8032 19.6185 2.5962 19.0598C2.4282 18.6428 2.2362 17.9977 2.17395 16.8255C2.1312 15.5677 2.11095 15.1778 2.11095 11.9813C2.11095 8.78625 2.1312 8.3955 2.17395 7.122C2.2362 5.94975 2.4282 5.30625 2.5962 4.88775C2.8032 4.317 3.07245 3.927 3.49395 3.50475C3.9117 3.087 4.3032 2.817 4.8732 2.6055C5.29545 2.44125 5.92395 2.24625 7.0962 2.18775C8.36895 2.142 8.74395 2.1255 11.951 2.1255L12.0005 2.16ZM12.0005 5.84025C8.5947 5.84025 5.8407 8.598 5.8407 12C5.8407 15.4057 8.59845 18.1597 12.0005 18.1597C15.4062 18.1597 18.1602 15.402 18.1602 12C18.1602 8.59425 15.4025 5.84025 12.0005 5.84025V5.84025ZM12.0005 15.9998C9.78945 15.9998 8.0007 14.211 8.0007 12C8.0007 9.789 9.78945 8.00025 12.0005 8.00025C14.2115 8.00025 16.0002 9.789 16.0002 12C16.0002 14.211 14.2115 15.9998 12.0005 15.9998V15.9998ZM19.8485 5.59425C19.8485 6.3915 19.1997 7.035 18.4062 7.035C17.609 7.035 16.9655 6.39075 16.9655 5.59425C16.9655 4.8015 17.6135 4.1565 18.4062 4.1565C19.199 4.1565 19.8485 4.8015 19.8485 5.59425V5.59425Z"
            fill='#ffffff'></path>
    </g>
    <defs>
        <clipPath id="clip0_405_371">
            <rect width="24" height="24" fill='#ffffff'></rect>
        </clipPath>
    </defs>
</svg>