<?xml version="1.0" encoding="UTF-8"?>
<!-- Generated by Pixelmator Pro 3.7.1 -->
<svg width="18979" height="2600" viewBox="0 0 18979 2600" xmlns="http://www.w3.org/2000/svg">
    <path id="Shape" fill="#ffffff" fill-rule="evenodd" stroke="none" d=""/>
    <path id="webdesign-marcelschreinerch" fill="#ffffff" fill-rule="evenodd" stroke="none" d="M 18454.46875 2121.75 L 18454.46875 1327.169922 L 18611.574219 1327.169922 L 18612 1633 C 18612 1633 18612.474609 1626.607178 18632.085938 1605.78418 C 18651.699219 1584.961426 18673.966797 1570.102783 18698.892578 1561.208496 C 18723.818359 1552.313965 18748.742188 1547.866943 18773.667969 1547.866943 C 18838.269531 1547.866943 18888.65625 1565.916748 18924.835938 1602.016846 C 18961.011719 1638.117188 18979.101563 1687.86084 18979.101563 1751.25 L 18979.101563 2121.75 L 18822.011719 2121.75 L 18822.011719 1809.390137 C 18822.011719 1765.760986 18814.300781 1733.954102 18798.875 1713.968506 C 18783.449219 1693.982666 18759.015625 1683.98999 18725.574219 1683.98999 C 18687.113281 1683.98999 18658.496094 1697.782715 18639.726563 1725.368408 C 18620.958984 1752.954102 18611.574219 1796.463867 18611.574219 1855.898438 L 18611.574219 2121.75 Z M 18109.503906 2133.613037 C 18062.847656 2133.613037 18022.152344 2125.404541 17987.417969 2108.987305 C 17952.683594 2092.570068 17923.6875 2070.414551 17900.429688 2042.52002 C 17877.173828 2014.625488 17859.84375 1983.19873 17848.445313 1948.238525 C 17837.044922 1913.27832 17831.34375 1877.255859 17831.34375 1840.169922 C 17831.34375 1803.238525 17837.044922 1767.293213 17848.445313 1732.333008 C 17859.84375 1697.373047 17877.173828 1666.097412 17900.429688 1638.505859 C 17923.6875 1610.914063 17952.683594 1588.909912 17987.417969 1572.492676 C 18022.152344 1556.075439 18062.847656 1547.866943 18109.503906 1547.866943 C 18167.574219 1547.866943 18217.925781 1561.701172 18260.564453 1589.370117 C 18303.201172 1617.038818 18334.927734 1659.295654 18355.746094 1716.141602 L 18219.175781 1770.166992 C 18210.970703 1744.944336 18198.279297 1724.275879 18181.101563 1708.161621 C 18163.925781 1692.047119 18140.058594 1683.98999 18109.503906 1683.98999 C 18080.779297 1683.98999 18057.449219 1691.589844 18039.511719 1706.790039 C 18021.574219 1721.98999 18008.541016 1741.52124 18000.412109 1765.384277 C 17992.285156 1789.24707 17988.21875 1814.175537 17988.21875 1840.169922 C 17988.21875 1866.164551 17992.285156 1891.282715 18000.412109 1915.525879 C 18008.541016 1939.768799 18021.574219 1959.451416 18039.511719 1974.574219 C 18057.449219 1989.697021 18080.779297 1997.258301 18109.503906 1997.258301 C 18140.058594 1997.258301 18163.925781 1989.23999 18181.101563 1973.202637 C 18198.279297 1957.165283 18210.970703 1936.458496 18219.175781 1911.081543 L 18355.746094 1965.106934 C 18334.927734 2021.9646 18303.201172 2064.262939 18260.564453 2092.003174 C 18217.925781 2119.743164 18167.574219 2133.613037 18109.503906 2133.613037 Z M 16842.738281 2133.613037 C 16792.578125 2133.613037 16749.601563 2125.594727 16713.810547 2109.557373 C 16678.019531 2093.52002 16648.835938 2071.744629 16626.261719 2044.22998 C 16603.6875 2016.715576 16587.193359 1985.668701 16576.779297 1951.088379 C 16566.365234 1916.508301 16561.158203 1880.75293 16561.158203 1843.821533 C 16561.158203 1808.101318 16566.326172 1772.723145 16576.664063 1737.685791 C 16587 1702.648438 16602.925781 1670.841553 16624.4375 1642.26416 C 16645.949219 1613.687012 16674.029297 1590.810059 16708.679688 1573.632568 C 16743.332031 1556.455322 16784.976563 1547.866943 16833.617188 1547.866943 C 16877.554688 1547.866943 16916.054688 1555.276855 16949.113281 1570.096924 C 16982.173828 1584.916992 17009.685547 1605.55249 17031.648438 1632.00415 C 17053.611328 1658.456055 17070.140625 1689.464111 17081.238281 1725.030029 C 17092.335938 1760.595703 17097.882813 1799.129883 17097.882813 1840.633057 C 17097.882813 1847.318848 17097.693359 1855.105713 17097.314453 1863.994141 C 17096.933594 1872.882813 17095.984375 1883.026855 17094.464844 1894.426758 L 16718.03125 1894.426758 C 16722.128906 1929.695801 16736.716797 1955.841309 16761.796875 1972.864258 C 16786.878906 1989.887207 16816.974609 1998.398438 16852.089844 1998.398438 C 16880.517578 1998.398438 16908.714844 1993.535645 16936.679688 1983.810059 C 16964.646484 1974.084229 16989.269531 1960.178711 17010.548828 1942.093262 L 17082.369141 2050.606934 C 17054.558594 2070.830078 17028.644531 2087.060059 17004.626953 2099.297363 C 16980.609375 2111.534668 16955.871094 2120.312988 16930.410156 2125.633057 C 16904.951172 2130.953125 16875.726563 2133.613037 16842.738281 2133.613037 Z M 16940.671875 1739.164307 C 16934.929688 1726.789795 16927.296875 1715.94873 16917.185547 1706.905762 C 16907.074219 1697.862793 16895.216797 1690.794434 16881.613281 1685.699951 C 16868.009766 1680.605469 16853.080078 1678.05835 16836.824219 1678.05835 C 16810.222656 1678.05835 16788.335938 1683.227051 16771.158203 1693.564209 C 16753.980469 1703.901367 16741.060547 1716.74707 16732.398438 1732.101563 C 16723.734375 1747.456055 16718.263672 1763.035889 16715.984375 1778.841553 L 16949 1779 C 16949 1779 16951.914063 1763.39502 16940.671875 1739.164307 Z M 15937.349609 2121.75 L 15937.349609 1559.72998 L 16094.456055 1559.72998 L 16095 1633 C 16095 1633 16095.509766 1626.414063 16114.966797 1605.668457 C 16134.424805 1584.922852 16156.615234 1570.102783 16181.541016 1561.208496 C 16206.466797 1552.313965 16231.469727 1547.866943 16256.549805 1547.866943 C 16321.150391 1547.866943 16371.539063 1565.916748 16407.714844 1602.016846 C 16443.892578 1638.117188 16461.980469 1687.86084 16461.980469 1751.25 L 16461.980469 2121.75 L 16304.892578 2121.75 L 16304.892578 1809.390137 C 16304.892578 1765.760986 16297.179688 1733.954102 16281.754883 1713.968506 C 16266.329102 1693.982666 16241.896484 1683.98999 16208.456055 1683.98999 C 16182.758789 1683.98999 16161.514648 1689.992676 16144.722656 1701.998535 C 16127.931641 1714.00415 16115.356445 1732.662598 16106.996094 1757.974121 C 16098.636719 1783.285889 16094.456055 1815.927002 16094.456055 1855.898438 L 16094.456055 2121.75 Z M 17204.800781 1559.72998 L 17204.800781 2121.75 L 17361.908203 2121.75 L 17361.908203 1887.586914 C 17361.908203 1856.129883 17362.857422 1832.154541 17364.757813 1815.659912 C 17366.658203 1799.165527 17369.429688 1785.598633 17373.076172 1774.958496 C 17378.847656 1758.547119 17386.671875 1745.095703 17396.552734 1734.604248 C 17406.433594 1724.112549 17417.871094 1716.361328 17430.869141 1711.350098 C 17443.867188 1706.338867 17457.359375 1703.833008 17471.347656 1703.833008 C 17484.564453 1703.833008 17497.900391 1705.807373 17511.355469 1709.755859 C 17524.808594 1713.704102 17535.484375 1718.26123 17543.382813 1723.426758 L 17618.621094 1582.066895 C 17599.478516 1569.906738 17581.167969 1561.166992 17563.6875 1555.846924 C 17546.207031 1550.526855 17527.8125 1547.866943 17508.503906 1547.866943 C 17482.058594 1547.866943 17456.257813 1555.012695 17431.101563 1569.304199 C 17405.943359 1583.595703 17384.394531 1602.78125 17368.623047 1628.24585 C 17365.097656 1633.937744 17363 1637 17363 1637 L 17362.816406 1559.72998 L 17204.800781 1559.72998 Z M 17573.492188 1965.801514 L 17573.492188 2121.75 L 17736.726563 2121.75 L 17736.726563 1965.801514 L 17573.492188 1965.801514 Z"/>
    <path id="path1" fill="#ffffff" fill-rule="evenodd" stroke="none" d="M 15649.849609 2121.75 L 15649.849609 1559.72998 L 15806.029297 1559.72998 L 15806.029297 2121.75 Z M 15647.569336 1477.649902 L 15647.569336 1327.169922 L 15810.589844 1327.169922 L 15810.589844 1477.649902 Z M 15288.462891 2133.613037 C 15238.302734 2133.613037 15195.327148 2125.594727 15159.535156 2109.557373 C 15123.744141 2093.52002 15094.561523 2071.744629 15071.987305 2044.22998 C 15049.412109 2016.715576 15032.917969 1985.668701 15022.503906 1951.088379 C 15012.089844 1916.508301 15006.882813 1880.75293 15006.882813 1843.821533 C 15006.882813 1808.101318 15012.050781 1772.723145 15022.388672 1737.685791 C 15032.725586 1702.648438 15048.650391 1670.841553 15070.161133 1642.26416 C 15091.672852 1613.687012 15119.753906 1590.810059 15154.40625 1573.632568 C 15189.056641 1556.455322 15230.702148 1547.866943 15279.341797 1547.866943 C 15323.280273 1547.866943 15361.77832 1555.276855 15394.838867 1570.096924 C 15427.898438 1584.916992 15455.410156 1605.55249 15477.373047 1632.00415 C 15499.335938 1658.456055 15515.865234 1689.464111 15526.962891 1725.030029 C 15538.060547 1760.595703 15543.609375 1799.129883 15543.609375 1840.633057 C 15543.609375 1847.318848 15543.418945 1855.105713 15543.039063 1863.994141 C 15542.658203 1872.882813 15541.708984 1883.026855 15540.188477 1894.426758 L 15163.757813 1894.426758 C 15167.853516 1929.695801 15182.442383 1955.841309 15207.522461 1972.864258 C 15232.602539 1989.887207 15262.699219 1998.398438 15297.814453 1998.398438 C 15326.242188 1998.398438 15354.439453 1993.535645 15382.40625 1983.810059 C 15410.371094 1974.084229 15434.994141 1960.178711 15456.273438 1942.093262 L 15528.09375 2050.606934 C 15500.283203 2070.830078 15474.369141 2087.060059 15450.351563 2099.297363 C 15426.333984 2111.534668 15401.595703 2120.312988 15376.135742 2125.633057 C 15350.675781 2130.953125 15321.451172 2133.613037 15288.462891 2133.613037 Z M 15386.395508 1739.164307 C 15380.483398 1726.871094 15373.021484 1715.94873 15362.910156 1706.905762 C 15352.798828 1697.862793 15340.941406 1690.794434 15327.337891 1685.699951 C 15313.735352 1680.605469 15298.805664 1678.05835 15282.548828 1678.05835 C 15255.949219 1678.05835 15234.060547 1683.227051 15216.882813 1693.564209 C 15199.705078 1703.901367 15186.785156 1716.74707 15178.123047 1732.101563 C 15169.459961 1747.456055 15163.988281 1763.035889 15161.708984 1778.841553 L 15395 1779 C 15395 1779 15396.948242 1761.106201 15386.395508 1739.164307 Z M 14569.123047 2121.75 L 14569.123047 1559.72998 L 14727.137695 1559.72998 L 14727 1638 C 14727 1638 14728.349609 1635.285889 14732.944336 1628.24585 C 14749.31543 1603.161621 14770.264648 1583.595703 14795.421875 1569.304199 C 14820.579102 1555.012695 14846.380859 1547.866943 14872.826172 1547.866943 C 14892.134766 1547.866943 14910.529297 1550.526855 14928.009766 1555.846924 C 14945.489258 1561.166992 14963.800781 1569.906738 14982.943359 1582.066895 L 14907.703125 1723.426758 C 14899.806641 1718.26123 14889.130859 1713.704102 14875.675781 1709.755859 C 14862.22168 1705.807373 14848.886719 1703.833008 14835.669922 1703.833008 C 14821.679688 1703.833008 14808.1875 1706.338867 14795.19043 1711.350098 C 14782.193359 1716.361328 14770.753906 1724.112549 14760.875 1734.604248 C 14750.994141 1745.095703 14743.168945 1758.547119 14737.397461 1774.958496 C 14733.751953 1785.598633 14730.978516 1799.165527 14729.079102 1815.659912 C 14727.179688 1832.154541 14726.228516 1856.129883 14726.228516 1887.586914 L 14726.228516 2121.75 Z M 13919.095703 2121.75 L 13919.095703 1327.169922 L 14076.201172 1327.169922 L 14076 1634 C 14076 1634 14077.101563 1626.607178 14096.712891 1605.78418 C 14116.324219 1584.961426 14138.592773 1570.102783 14163.518555 1561.208496 C 14188.444336 1552.313965 14213.369141 1547.866943 14238.294922 1547.866943 C 14302.895508 1547.866943 14353.283203 1565.916748 14389.460938 1602.016846 C 14425.638672 1638.117188 14443.726563 1687.86084 14443.726563 1751.25 L 14443.726563 2121.75 L 14286.638672 2121.75 L 14286.638672 1809.390137 C 14286.638672 1765.760986 14278.925781 1733.954102 14263.5 1713.968506 C 14248.074219 1693.982666 14223.641602 1683.98999 14190.201172 1683.98999 C 14151.738281 1683.98999 14123.123047 1697.782715 14104.354492 1725.368408 C 14085.585938 1752.954102 14076.201172 1796.463867 14076.201172 1855.898438 L 14076.201172 2121.75 Z M 13574.130859 2133.613037 C 13527.474609 2133.613037 13486.779297 2125.404541 13452.044922 2108.987305 C 13417.310547 2092.570068 13388.314453 2070.414551 13365.056641 2042.52002 C 13341.799805 2014.625488 13324.47168 1983.19873 13313.071289 1948.238525 C 13301.671875 1913.27832 13295.97168 1877.255859 13295.97168 1840.169922 C 13295.97168 1803.238525 13301.671875 1767.293213 13313.071289 1732.333008 C 13324.47168 1697.373047 13341.799805 1666.097412 13365.056641 1638.505859 C 13388.314453 1610.914063 13417.310547 1588.909912 13452.044922 1572.492676 C 13486.779297 1556.075439 13527.474609 1547.866943 13574.130859 1547.866943 C 13632.201172 1547.866943 13682.552734 1561.701172 13725.19043 1589.370117 C 13767.828125 1617.038818 13799.554688 1659.295654 13820.371094 1716.141602 L 13683.802734 1770.166992 C 13675.597656 1744.944336 13662.90625 1724.275879 13645.728516 1708.161621 C 13628.550781 1692.047119 13604.685547 1683.98999 13574.130859 1683.98999 C 13545.40625 1683.98999 13522.074219 1691.589844 13504.136719 1706.790039 C 13486.199219 1721.98999 13473.167969 1741.52124 13465.039063 1765.384277 C 13456.910156 1789.24707 13452.845703 1814.175537 13452.845703 1840.169922 C 13452.845703 1866.164551 13456.910156 1891.282715 13465.039063 1915.525879 C 13473.167969 1939.768799 13486.199219 1959.451416 13504.136719 1974.574219 C 13522.074219 1989.697021 13545.40625 1997.258301 13574.130859 1997.258301 C 13604.685547 1997.258301 13628.550781 1989.23999 13645.728516 1973.202637 C 13662.90625 1957.165283 13675.597656 1936.458496 13683.802734 1911.081543 L 13820.371094 1965.106934 C 13799.554688 2021.9646 13767.828125 2064.262939 13725.19043 2092.003174 C 13682.552734 2119.743164 13632.201172 2133.613037 13574.130859 2133.613037 Z M 12981.338867 2133.613037 C 12938.469727 2133.613037 12901.230469 2127.456055 12869.619141 2115.141602 C 12838.006836 2102.827148 12811.523438 2087.778809 12790.166016 2069.99585 C 12768.808594 2052.212891 12751.367188 2035.72168 12737.841797 2020.521484 L 12844.306641 1927.041504 C 12857.536133 1945.578613 12875.360352 1963.702637 12897.780273 1981.414307 C 12920.200195 1999.125977 12948.432617 2007.981445 12982.478516 2007.981445 C 13007.867188 2007.981445 13027.552734 2002.964355 13041.536133 1992.929932 C 13055.518555 1982.895508 13062.509766 1971.341309 13062.509766 1958.266846 C 13062.509766 1946.724365 13057.873047 1937.304688 13048.598633 1930.007324 C 13039.324219 1922.710205 13027.086914 1916.324463 13011.886719 1910.850098 C 12996.6875 1905.375488 12979.586914 1900.209961 12960.586914 1895.353027 C 12939.306641 1889.415527 12917.228516 1882.495605 12894.351563 1874.592773 C 12871.473633 1866.689941 12850.232422 1856.278564 12830.626953 1843.358398 C 12811.021484 1830.438477 12795.138672 1813.947266 12782.978516 1793.884277 C 12770.818359 1773.821289 12764.738281 1748.66748 12764.738281 1718.421631 C 12764.738281 1667.192627 12784.611328 1625.959961 12824.357422 1594.722656 C 12864.102539 1563.485352 12916.583984 1547.866943 12981.801758 1547.866943 C 13027.402344 1547.866943 13068.783203 1556.645508 13105.946289 1574.202637 C 13143.109375 1591.76001 13172.478516 1617.181152 13194.055664 1650.466797 L 13097.849609 1727.078369 C 13083.861328 1707.164063 13066.188477 1691.77417 13044.831055 1680.908447 C 13023.473633 1670.042725 13001.015625 1664.609863 12977.455078 1664.609863 C 12958.158203 1664.609863 12942.279297 1668.258545 12929.816406 1675.555664 C 12917.353516 1682.853027 12911.12207 1692.278809 12911.12207 1703.833008 C 12911.12207 1711.884277 12914.007813 1718.721436 12919.77832 1724.344238 C 12925.549805 1729.967041 12935.390625 1735.135742 12949.302734 1739.850098 C 12963.214844 1744.564453 12981.873047 1749.961426 13005.27832 1756.041504 C 13027.626953 1761.361572 13050.961914 1767.821533 13075.28125 1775.421631 C 13099.601563 1783.021484 13122.475586 1793.355713 13143.904297 1806.424316 C 13165.333008 1819.492676 13182.774414 1836.856689 13196.228516 1858.516846 C 13209.683594 1880.177002 13216.410156 1907.578125 13216.410156 1940.72168 C 13216.410156 1978.72168 13206.604492 2012.235596 13186.993164 2041.26416 C 13167.380859 2070.292725 13139.944336 2092.941162 13104.681641 2109.209961 C 13069.417969 2125.47876 13028.304688 2133.613037 12981.338867 2133.613037 Z"/>
    <path id="path2" fill="#ffffff" fill-rule="evenodd" stroke="none" d="M 12598.990234 2133.613037 C 12559.31543 2133.613037 12526.101563 2121.604736 12499.34668 2097.587402 C 12472.591797 2073.570068 12459.214844 2035.341797 12459.214844 1982.901611 L 12459.214844 1327.169922 L 12615.164063 1327.169922 L 12615.164063 1951.890137 C 12615.164063 1965.415771 12618.661133 1974.989746 12625.655273 1980.612793 C 12632.649414 1986.235596 12641.621094 1989.046875 12652.570313 1989.046875 C 12658.792969 1989.046875 12665.021484 1988.441162 12671.255859 1987.22998 C 12677.490234 1986.018799 12683.949219 1984.498779 12690.634766 1982.669922 L 12690.634766 2115.818359 C 12674.069336 2122.361572 12657.806641 2126.963135 12641.84668 2129.623047 C 12625.886719 2132.283203 12611.601563 2133.613037 12598.990234 2133.613037 Z M 12100.339844 2133.613037 C 12050.179688 2133.613037 12007.204102 2125.594727 11971.413086 2109.557373 C 11935.621094 2093.52002 11906.439453 2071.744629 11883.864258 2044.22998 C 11861.290039 2016.715576 11844.795898 1985.668701 11834.380859 1951.088379 C 11823.966797 1916.508301 11818.759766 1880.75293 11818.759766 1843.821533 C 11818.759766 1808.101318 11823.928711 1772.723145 11834.265625 1737.685791 C 11844.602539 1702.648438 11860.527344 1670.841553 11882.039063 1642.26416 C 11903.550781 1613.687012 11931.631836 1590.810059 11966.283203 1573.632568 C 12000.93457 1556.455322 12042.580078 1547.866943 12091.219727 1547.866943 C 12135.157227 1547.866943 12173.65625 1555.276855 12206.71582 1570.096924 C 12239.776367 1584.916992 12267.287109 1605.55249 12289.25 1632.00415 C 12311.212891 1658.456055 12327.743164 1689.464111 12338.839844 1725.030029 C 12349.9375 1760.595703 12355.486328 1799.129883 12355.486328 1840.633057 C 12355.486328 1847.318848 12355.295898 1855.105713 12354.916016 1863.994141 C 12354.536133 1872.882813 12353.585938 1883.026855 12352.066406 1894.426758 L 11975.634766 1894.426758 C 11979.731445 1929.695801 11994.319336 1955.841309 12019.400391 1972.864258 C 12044.480469 1989.887207 12074.577148 1998.398438 12109.691406 1998.398438 C 12138.120117 1998.398438 12166.317383 1993.535645 12194.283203 1983.810059 C 12222.249023 1974.084229 12246.871094 1960.178711 12268.151367 1942.093262 L 12339.97168 2050.606934 C 12312.160156 2070.830078 12286.246094 2087.060059 12262.228516 2099.297363 C 12238.210938 2111.534668 12213.472656 2120.312988 12188.012695 2125.633057 C 12162.552734 2130.953125 12133.328125 2133.613037 12100.339844 2133.613037 Z M 12198.273438 1739.164307 C 12192.554688 1726.779785 12184.898438 1715.94873 12174.787109 1706.905762 C 12164.675781 1697.862793 12152.818359 1690.794434 12139.21582 1685.699951 C 12125.613281 1680.605469 12110.683594 1678.05835 12094.425781 1678.05835 C 12067.826172 1678.05835 12045.9375 1683.227051 12028.759766 1693.564209 C 12011.583008 1703.901367 11998.663086 1716.74707 11990 1732.101563 C 11981.337891 1747.456055 11975.866211 1763.035889 11973.585938 1778.841553 L 12207 1779 C 12207 1779 12207.564453 1759.284912 12198.273438 1739.164307 Z M 11500.015625 2133.613037 C 11453.359375 2133.613037 11412.664063 2125.404541 11377.928711 2108.987305 C 11343.194336 2092.570068 11314.199219 2070.414551 11290.941406 2042.52002 C 11267.68457 2014.625488 11250.355469 1983.19873 11238.956055 1948.238525 C 11227.555664 1913.27832 11221.855469 1877.255859 11221.855469 1840.169922 C 11221.855469 1803.238525 11227.555664 1767.293213 11238.956055 1732.333008 C 11250.355469 1697.373047 11267.68457 1666.097412 11290.941406 1638.505859 C 11314.199219 1610.914063 11343.194336 1588.909912 11377.928711 1572.492676 C 11412.664063 1556.075439 11453.359375 1547.866943 11500.015625 1547.866943 C 11558.084961 1547.866943 11608.4375 1561.701172 11651.074219 1589.370117 C 11693.711914 1617.038818 11725.439453 1659.295654 11746.255859 1716.141602 L 11609.6875 1770.166992 C 11601.481445 1744.944336 11588.791016 1724.275879 11571.613281 1708.161621 C 11554.435547 1692.047119 11530.570313 1683.98999 11500.015625 1683.98999 C 11471.290039 1683.98999 11447.958984 1691.589844 11430.021484 1706.790039 C 11412.083984 1721.98999 11399.051758 1741.52124 11390.923828 1765.384277 C 11382.794922 1789.24707 11378.730469 1814.175537 11378.730469 1840.169922 C 11378.730469 1866.164551 11382.794922 1891.282715 11390.923828 1915.525879 C 11399.051758 1939.768799 11412.083984 1959.451416 11430.021484 1974.574219 C 11447.958984 1989.697021 11471.290039 1997.258301 11500.015625 1997.258301 C 11530.570313 1997.258301 11554.435547 1989.23999 11571.613281 1973.202637 C 11588.791016 1957.165283 11601.481445 1936.458496 11609.6875 1911.081543 L 11746.255859 1965.106934 C 11725.439453 2021.9646 11693.711914 2064.262939 11651.074219 2092.003174 C 11608.4375 2119.743164 11558.084961 2133.613037 11500.015625 2133.613037 Z M 10784.09668 2121.75 L 10784.09668 1559.72998 L 10942.111328 1559.72998 L 10942 1638 C 10942 1638 10942.708008 1636.60498 10947.917969 1628.24585 C 10963.761719 1602.825684 10985.238281 1583.595703 11010.395508 1569.304199 C 11035.552734 1555.012695 11061.353516 1547.866943 11087.799805 1547.866943 C 11107.108398 1547.866943 11125.50293 1550.526855 11142.982422 1555.846924 C 11160.462891 1561.166992 11178.773438 1569.906738 11197.916016 1582.066895 L 11122.676758 1723.426758 C 11114.779297 1718.26123 11104.103516 1713.704102 11090.649414 1709.755859 C 11077.195313 1705.807373 11063.859375 1703.833008 11050.642578 1703.833008 C 11036.654297 1703.833008 11023.161133 1706.338867 11010.164063 1711.350098 C 10997.166016 1716.361328 10985.728516 1724.112549 10975.847656 1734.604248 C 10965.967773 1745.095703 10958.142578 1758.547119 10952.371094 1774.958496 C 10948.725586 1785.598633 10945.953125 1799.165527 10944.052734 1815.659912 C 10942.152344 1832.154541 10941.203125 1856.129883 10941.203125 1887.586914 L 10941.203125 2121.75 Z M 10242.083984 2110.71582 C 10274.841797 2126.147461 10311.584961 2133.863281 10352.316406 2133.863281 C 10377.397461 2133.863281 10401.984375 2129.113281 10426.078125 2119.613281 C 10450.172852 2110.113037 10472.250977 2094.037598 10492.314453 2071.385742 C 10496.833008 2066.283936 10501.15918 2060.766113 10505.292969 2054.832031 L 10516.262695 2122 L 10659.90332 2122 L 10659.90332 1766.088379 C 10659.90332 1698.602539 10637.786133 1645.403076 10593.551758 1606.488525 C 10549.317383 1567.573853 10487.90625 1548.116943 10409.316406 1548.116943 C 10360.831055 1548.116943 10315.688477 1554.54126 10273.888672 1567.390015 C 10232.087891 1580.23877 10190.140625 1602.165771 10148.042969 1633.171631 L 10220.308594 1741.703125 C 10243.571289 1722.999878 10271.237305 1707.987061 10303.305664 1696.664307 C 10335.374023 1685.341309 10366.305664 1679.679932 10396.099609 1679.679932 C 10428.020508 1679.679932 10453.972656 1686.597168 10473.958008 1700.431641 C 10493.944336 1714.265991 10503.936523 1736.151367 10503.936523 1766.088379 L 10503.936523 1777.488525 L 10345.262695 1777.488525 C 10319.56543 1777.488525 10295.355469 1779.807007 10272.632813 1784.444214 C 10249.910156 1789.081421 10229.583008 1796.642822 10211.651367 1807.128418 C 10188.851563 1819.894043 10170.573242 1838.172607 10156.81543 1861.964233 C 10143.058594 1885.755859 10136.179688 1913.837036 10136.179688 1946.208496 C 10136.179688 1983.603027 10145.641602 2016.51123 10164.564453 2044.934204 C 10183.487305 2073.357178 10209.327148 2095.28418 10242.083984 2110.71582 Z M 10503.936523 1893.32312 C 10503.896484 1915.42334 10498.083984 1935.067383 10486.498047 1952.255859 C 10474.873047 1969.504272 10459.370117 1983.068359 10439.990234 1992.948486 C 10420.610352 2002.828491 10399.294922 2007.768433 10376.042969 2007.768433 C 10350.962891 2007.768433 10330.897461 2002.219971 10315.845703 1991.122681 C 10300.793945 1980.025391 10293.268555 1965.131348 10293.268555 1946.439941 C 10293.268555 1937.925537 10295.055664 1930.248535 10298.629883 1923.408447 C 10302.204102 1916.568359 10307.108398 1910.868408 10313.342773 1906.30835 C 10320.325195 1901.297119 10328.53125 1897.880127 10337.959961 1896.057373 C 10347.388672 1894.234497 10357.422852 1893.32312 10368.063477 1893.32312 L 10503.936523 1893.32312 Z M 9192.657227 2121.75 L 9192.657227 1559.72998 L 9349.762695 1559.72998 L 9350 1631 C 9350 1631 9367.227539 1602.614258 9390.339844 1584.925781 C 9408.384766 1571.115234 9427.386719 1561.552734 9447.224609 1556.078369 C 9467.061523 1550.604004 9486.325195 1547.866943 9505.016602 1547.866943 C 9532.53125 1547.866943 9559.816406 1553.112549 9586.874023 1563.604248 C 9613.931641 1574.095703 9637.30957 1592.98999 9658.47168 1619.125732 C 9663.657227 1625.530029 9664.831055 1628.207764 9665 1628 C 9688.876953 1598.708008 9708.886719 1580.74585 9738.146484 1567.594238 C 9767.407227 1554.442627 9796.933594 1547.866943 9826.728516 1547.866943 C 9875.523438 1547.866943 9915.042969 1558.471191 9945.288086 1579.679932 C 9975.53418 1600.888916 9997.876953 1627.868652 10012.316406 1660.620117 C 10026.756836 1693.371338 10033.976563 1727.606689 10033.976563 1763.326904 L 10033.976563 2121.75 L 9877.120117 2121.75 L 9877.120117 1801.641602 C 9877.120117 1775.195801 9873.738281 1753.233154 9866.975586 1735.753174 C 9860.212891 1718.272949 9850.410156 1705.275879 9837.567383 1696.761475 C 9824.724609 1688.24707 9808.725586 1683.98999 9789.571289 1683.98999 C 9767.685547 1683.98999 9749.484375 1689.76709 9734.967773 1701.321533 C 9720.450195 1712.875977 9709.582031 1730.394531 9702.361328 1753.877441 C 9695.141602 1777.360352 9691.53125 1807.187012 9691.53125 1843.358398 L 9691.53125 2121.75 L 9535.351563 2121.75 L 9535.351563 1800.038574 C 9535.351563 1761.27832 9528.054688 1732.24707 9513.459961 1712.944336 C 9498.865234 1693.641357 9478.345703 1683.98999 9451.900391 1683.98999 C 9429.408203 1683.98999 9410.563477 1689.802734 9395.363281 1701.428467 C 9380.163086 1713.054199 9368.762695 1730.57251 9361.163086 1753.984131 C 9353.563477 1777.395996 9349.762695 1807.187012 9349.762695 1843.358398 L 9349.762695 2121.75 Z"/>
    <path id="webdesign--code" fill="#ffffff" fill-rule="evenodd" stroke="none" d="M 18209.949219 1020.873535 C 18159.746094 1020.873535 18116.732422 1012.848145 18080.910156 996.796875 C 18045.085938 980.745117 18015.878906 958.950684 17993.285156 931.412109 C 17970.691406 903.873535 17954.181641 872.799316 17943.757813 838.188477 C 17933.333984 803.578125 17928.123047 767.791504 17928.123047 730.827637 C 17928.123047 695.076172 17933.296875 659.666992 17943.640625 624.598633 C 17953.988281 589.530762 17969.925781 557.696289 17991.457031 529.09375 C 18012.988281 500.491211 18041.09375 477.594238 18075.775391 460.401855 C 18110.457031 443.209473 18152.138672 434.613281 18200.820313 434.613281 C 18244.796875 434.613281 18283.330078 442.029785 18316.417969 456.862793 C 18349.507813 471.696289 18377.042969 492.349609 18399.025391 518.824707 C 18421.007813 545.299316 18437.552734 576.334961 18448.660156 611.932129 C 18459.765625 647.528809 18465.320313 686.09668 18465.320313 727.636719 C 18465.320313 734.328125 18465.128906 742.12207 18464.75 751.018066 C 18464.369141 759.914551 18463.417969 770.067383 18461.896484 781.477539 L 18085.134766 781.477539 C 18089.234375 816.777344 18103.835938 842.945801 18128.9375 859.983398 C 18154.041016 877.021484 18184.164063 885.540039 18219.308594 885.540039 C 18247.763672 885.540039 18275.984375 880.67334 18303.976563 870.938965 C 18331.964844 861.20459 18356.609375 847.287109 18377.908203 829.185547 L 18449.791016 937.794434 C 18421.957031 958.035645 18396.019531 974.279785 18371.980469 986.527832 C 18347.941406 998.775391 18323.183594 1007.562012 18297.699219 1012.886719 C 18272.216797 1018.211426 18242.96875 1020.873535 18209.949219 1020.873535 Z M 18316 665 C 18315.589844 649.791992 18313.519531 638.552246 18307.96875 626.078613 C 18302.417969 613.60498 18294.582031 602.842773 18284.460938 593.791992 C 18274.341797 584.741211 18262.474609 577.666504 18248.859375 572.567383 C 18235.246094 567.46875 18220.300781 564.919434 18204.03125 564.919434 C 18177.40625 564.919434 18155.5 570.092285 18138.308594 580.438477 C 18121.115234 590.785156 18108.183594 603.641602 18099.513672 619.009766 C 18090.84375 634.37793 18085.367188 649.971191 18083.085938 665.791016 L 18316 666 C 18316 666 18316.021484 665.797363 18316 665 Z M 17512.125 1020.873535 C 17462.978516 1020.873535 17420.875 1008.132324 17385.8125 982.649902 C 17350.75 957.16748 17323.9375 922.212891 17305.371094 877.785156 C 17286.806641 833.356934 17277.523438 783.15332 17277.523438 727.172852 C 17277.523438 664.797852 17288.021484 611.932129 17309.017578 568.574219 C 17330.013672 525.21582 17358.386719 492.049805 17394.136719 469.075195 C 17429.890625 446.100586 17469.21875 434.613281 17512.125 434.613281 C 17540.566406 434.613281 17567.644531 440.585938 17593.359375 452.530762 C 17619.072266 464.475586 17640.783203 483.473633 17659.652344 508.671387 C 17666.875 518.316895 17667 519 17667 519 L 17666.835938 213.723145 L 17822.921875 213.723145 L 17822.921875 1009 L 17666.835938 1009 L 17667 937 C 17667 937 17668.693359 936.020996 17657.03125 951.031738 C 17636.607422 977.320313 17613.75 995.572266 17588.339844 1005.692871 C 17562.929688 1015.813477 17537.523438 1020.873535 17512.125 1020.873535 Z M 17558.210938 877.107422 C 17583.929688 877.107422 17605.917969 870.983398 17624.173828 858.73584 C 17642.429688 846.487793 17656.503906 829.105469 17666.390625 806.588379 C 17676.28125 784.071289 17681.224609 757.599609 17681.224609 727.172852 C 17681.224609 696.746094 17676.28125 670.42627 17666.390625 648.212402 C 17656.503906 625.998047 17642.429688 608.770508 17624.173828 596.52832 C 17605.917969 584.286621 17583.929688 578.165527 17558.210938 578.165527 C 17533.109375 578.165527 17511.238281 584.134766 17492.601563 596.07373 C 17473.964844 608.012695 17459.667969 625.088867 17449.707031 647.302734 C 17439.748047 669.51709 17434.769531 696.140137 17434.769531 727.172852 C 17434.769531 758.206055 17439.748047 784.980469 17449.707031 807.497559 C 17459.667969 830.014648 17473.964844 847.245117 17492.601563 859.19043 C 17511.238281 871.135254 17533.109375 877.107422 17558.210938 877.107422 Z M 16913.128906 1020.873535 C 16858.181641 1020.873535 16809.068359 1008.207031 16765.787109 982.873047 C 16722.505859 957.539063 16688.466797 922.679199 16663.667969 878.292969 C 16638.869141 833.906738 16626.46875 783.40332 16626.46875 726.780762 C 16626.46875 670.146484 16638.830078 619.809082 16663.550781 575.767578 C 16688.273438 531.726074 16722.277344 497.19043 16765.564453 472.159668 C 16808.851563 447.128906 16858.027344 434.613281 16913.091797 434.613281 C 16968.169922 434.613281 17017.113281 447.092773 17059.925781 472.052734 C 17102.736328 497.012207 17136.546875 531.56543 17161.357422 575.714355 C 17186.167969 619.862793 17198.574219 670.348633 17198.574219 727.172852 C 17198.574219 783.462402 17186.230469 833.76709 17161.544922 878.087891 C 17136.859375 922.40918 17103.019531 957.286621 17060.023438 982.721191 C 17017.027344 1008.15625 16968.0625 1020.873535 16913.128906 1020.873535 Z M 16913.414063 883.258301 C 16940.429688 883.258301 16963.560547 877.134277 16982.808594 864.88623 C 17002.058594 852.638184 17016.625 834.762695 17026.515625 811.259277 C 17036.402344 787.755859 17041.347656 759.685547 17041.347656 727.04834 C 17041.347656 693.816406 17036.402344 665.752441 17026.515625 642.85498 C 17016.625 619.95752 17002.058594 602.423828 16982.808594 590.25293 C 16963.560547 578.082031 16940.429688 571.99707 16913.414063 571.99707 C 16885.814453 571.99707 16862.355469 578.121094 16843.037109 590.369141 C 16823.716797 602.616699 16808.960938 620.150391 16798.769531 642.970703 C 16788.578125 665.791016 16783.482422 693.816406 16783.482422 727.04834 C 16783.482422 759.685547 16788.578125 787.755859 16798.769531 811.259277 C 16808.960938 834.762695 16823.716797 852.638184 16843.037109 864.88623 C 16862.355469 877.134277 16885.814453 883.258301 16913.414063 883.258301 Z M 16307.445313 1020.873535 C 16260.748047 1020.873535 16220.017578 1012.657715 16185.251953 996.226074 C 16150.486328 979.794434 16121.466797 957.619629 16098.188477 929.700684 C 16074.910156 901.781738 16057.566406 870.327148 16046.157227 835.336426 C 16034.74707 800.345215 16029.041992 764.291504 16029.041992 727.172852 C 16029.041992 690.208984 16034.74707 654.232422 16046.157227 619.241699 C 16057.566406 584.250488 16074.910156 552.947754 16098.188477 525.332031 C 16121.466797 497.71582 16150.486328 475.692383 16185.251953 459.260742 C 16220.017578 442.829102 16260.748047 434.613281 16307.445313 434.613281 C 16365.566406 434.613281 16415.962891 448.459961 16458.636719 476.152832 C 16501.3125 503.846191 16533.066406 546.140137 16553.902344 603.035645 L 16417.214844 657.108398 C 16409 631.86377 16396.298828 611.177246 16379.105469 595.048828 C 16361.914063 578.919922 16338.027344 570.855957 16307.445313 570.855957 C 16278.695313 570.855957 16255.34375 578.462402 16237.390625 593.675781 C 16219.4375 608.889648 16206.392578 628.4375 16198.257813 652.321777 C 16190.12207 676.205566 16186.054688 701.155762 16186.054688 727.172852 C 16186.054688 753.19043 16190.12207 778.330566 16198.257813 802.594727 C 16206.392578 826.858887 16219.4375 846.559082 16237.390625 861.695313 C 16255.34375 876.831055 16278.695313 884.399414 16307.445313 884.399414 C 16338.027344 884.399414 16361.914063 876.373535 16379.105469 860.322266 C 16396.298828 844.270996 16409 823.545898 16417.214844 798.146973 L 16553.902344 852.219727 C 16533.066406 909.126953 16501.3125 951.462402 16458.636719 979.227051 C 16415.962891 1006.991699 16365.566406 1020.873535 16307.445313 1020.873535 Z"/>
    <path id="path3" fill="#ffffff" fill-rule="evenodd" stroke="none" d="M 15538.125 1052.228516 L 15443.178711 944 L 15441.449219 944 C 15425.636719 956.088623 15409.073242 966.746338 15391.758789 975.973145 C 15333.998047 1006.753418 15270.617188 1022.143066 15201.610352 1022.143066 C 15151.141602 1022.143066 15105.387695 1014.542969 15064.347656 999.343262 C 15023.306641 984.143066 14990.740234 961.266113 14966.646484 930.711426 C 14942.550781 900.157227 14930.503906 862.459961 14930.503906 817.620117 C 14930.503906 782.208496 14937.839844 751.087402 14952.511719 724.255859 C 14967.183594 697.423828 14986.22168 673.635742 15009.626953 652.890137 C 15033.033203 632.144531 15058.605469 613.295898 15086.345703 596.344238 C 15095.65332 590.65625 15104.87207 585.067139 15114 579.57666 L 15114 578.804199 C 15103.147461 567.636841 15090.777344 553.687988 15076.887695 536.95752 C 15061.996094 519.02002 15049.15332 498.120117 15038.359375 474.257324 C 15027.564453 450.394531 15022.167969 424.094727 15022.167969 395.356934 C 15022.167969 354.470703 15032.694336 319.894531 15053.749023 291.625977 C 15074.803711 263.357422 15102.503906 241.623047 15136.853516 226.422852 C 15171.201172 211.223145 15208.290039 203.623047 15248.119141 203.623047 C 15311.353516 203.623047 15362.804688 219.772949 15402.472656 252.073242 C 15442.142578 284.373047 15461.976563 329.854004 15461.976563 388.516602 C 15461.976563 431.694336 15450.65332 469.433105 15428.007813 501.733398 C 15405.361328 534.033203 15377.128906 562.835938 15343.308594 588.141602 C 15339.210938 591.207764 15335.107422 594.247681 15331 597.261353 L 15331 597.69812 L 15438.651367 718 L 15439.115234 718 C 15459.146484 677.360718 15475.80957 630.233154 15489.104492 576.616699 L 15628.416016 599.203125 C 15610.783203 692.761475 15581.978516 770.598755 15542 832.717041 L 15542 833.492798 L 15649.398438 953.511719 L 15538.125 1052.228516 Z M 15210.699219 679 L 15349 836.647217 L 15349 838.384766 C 15307.658203 871.970459 15258.52832 888.763184 15201.610352 888.763184 C 15168.015625 888.763184 15141.452148 881.768555 15121.917969 867.780273 C 15102.382813 853.791016 15092.615234 834.636719 15092.615234 810.316895 C 15092.615234 789.654297 15099.226563 771.266113 15112.450195 755.151367 C 15125.672852 739.037109 15143.533203 723.302734 15166.030273 707.948242 C 15179.601563 698.685547 15194.057617 689.036133 15209.399414 679 L 15210.699219 679 Z M 15231.458984 507 C 15236.082031 503.773926 15240.569336 500.56958 15244.921875 497.386719 C 15267.264648 481.046875 15284.744141 464.0625 15297.361328 446.434082 C 15309.978516 428.805664 15316.287109 410.188965 15316.287109 390.583008 C 15316.287109 373.554199 15311.005859 358.618652 15300.443359 345.775879 C 15289.880859 332.932617 15272.819336 326.511719 15249.258789 326.511719 C 15228.429688 326.511719 15210.493164 332.629883 15195.447266 344.867188 C 15180.402344 357.104492 15172.878906 375.00293 15172.878906 398.563477 C 15172.878906 414.060059 15176.908203 429.408203 15184.964844 444.608398 C 15193.021484 459.808594 15202.40625 473.639648 15213.117188 486.102539 C 15219.755859 493.82666 15225.739258 500.79248 15231.069336 507 L 15231.458984 507 Z"/>
    <path id="path4" fill="#ffffff" fill-rule="evenodd" stroke="none" d="M 14003.457031 1008 L 14003.457031 445.97998 L 14160.5625 445.97998 L 14161 519 C 14161 519 14168.857422 504.850098 14181.074219 491.918457 C 14200.606445 471.243652 14222.722656 456.353027 14247.648438 447.458496 C 14272.574219 438.563965 14297.576172 434.116699 14322.65625 434.116699 C 14387.256836 434.116699 14437.644531 452.166992 14473.822266 488.266602 C 14510 524.367188 14528.087891 574.11084 14528.087891 637.5 L 14528.087891 1008 L 14371 1008 L 14371 695.640137 C 14371 652.010742 14363.287109 620.204102 14347.861328 600.218262 C 14332.435547 580.232422 14308.00293 570.240234 14274.5625 570.240234 C 14248.865234 570.240234 14227.621094 576.242676 14210.830078 588.248535 C 14194.039063 600.253906 14181.462891 618.912598 14173.103516 644.224121 C 14164.743164 669.536133 14160.5625 702.176758 14160.5625 742.148438 L 14160.5625 1008 Z M 13632.194336 1252.423096 C 13586.59375 1252.423096 13547.121094 1246.378662 13513.774414 1234.290039 C 13480.428711 1222.201172 13452.22168 1206.431396 13429.151367 1186.97998 C 13406.081055 1167.528809 13386.333008 1147.163086 13369.907227 1125.882813 L 13487.248047 1037.640137 C 13500.262695 1057.399902 13516.614258 1075.791016 13536.303711 1092.813965 C 13555.991211 1109.836914 13581.944336 1118.348145 13614.161133 1118.348145 C 13633.921875 1118.348145 13653.761719 1114.928223 13673.683594 1108.088379 C 13693.606445 1101.248535 13710.259766 1088.290039 13723.646484 1069.212402 C 13737.032227 1050.135254 13743.308594 1022.813965 13742.473633 987.248535 L 13742 934 L 13741 935 C 13733.925781 946.043457 13721.541992 962.859863 13693.697266 976.99707 C 13665.853516 991.134766 13633.691406 998.203125 13597.210938 998.203125 C 13553.891602 998.203125 13515.261719 987.943359 13481.321289 967.422852 C 13447.380859 946.902832 13419.762695 918.783203 13398.461914 883.062988 C 13377.163086 847.342773 13363.306641 807.063477 13356.894531 762.223145 C 13351.045898 721.325195 13352.073242 681.461426 13359.974609 642.629883 C 13367.875977 603.79834 13381.976563 568.726074 13402.275391 537.411621 C 13422.575195 506.097168 13448.328125 481.052734 13479.535156 462.27832 C 13510.740234 443.503906 13546.792969 434.116699 13587.69043 434.116699 C 13632.067383 434.116699 13668.676758 443.806641 13697.520508 463.187012 C 13726.362305 482.566895 13740.482422 505.73584 13749 522 L 13750 524 L 13750.572266 445.97998 L 13897.631836 445.97998 L 13898.72168 995.691406 C 13899.014648 1055.125977 13888.148438 1103.765625 13866.123047 1141.611328 C 13844.098633 1179.45752 13813.019531 1207.386963 13772.887695 1225.401611 C 13732.754883 1243.416016 13685.857422 1252.423096 13632.194336 1252.423096 Z M 13638.585938 858.660156 C 13660.174805 858.660156 13678.967773 854.290039 13694.966797 845.549805 C 13710.964844 836.810059 13723.894531 824.916992 13733.754883 809.871582 C 13743.614258 794.825684 13750.295898 777.23291 13753.798828 757.093262 C 13757.301758 736.953125 13757.378906 715.174316 13754.030273 691.756836 C 13750.727539 668.659668 13743.992188 648.674316 13733.824219 631.799805 C 13723.657227 614.925293 13710.09375 601.664063 13693.133789 592.015625 C 13676.173828 582.367188 13656.525391 577.542969 13634.188477 577.542969 C 13612.908203 577.542969 13593.936523 581.723145 13577.271484 590.083008 C 13560.606445 598.442871 13546.890625 610.145996 13536.12207 625.191406 C 13525.354492 640.237305 13517.951172 657.82959 13513.914063 677.969727 C 13509.876953 698.109863 13509.542969 719.959961 13512.911133 743.52002 C 13516.107422 765.868652 13523.314453 785.705566 13534.532227 803.03125 C 13545.75 820.357422 13560.3125 833.959961 13578.219727 843.839844 C 13596.125977 853.720215 13616.249023 858.660156 13638.585938 858.660156 Z M 13117.228516 1008 L 13117.228516 445.97998 L 13273.408203 445.97998 L 13273.408203 1008 Z M 13114.948242 363.899902 L 13114.948242 213.419922 L 13277.96875 213.419922 L 13277.96875 363.899902 Z M 12777.052734 1019.863281 C 12734.183594 1019.863281 12696.943359 1013.706055 12665.332031 1001.391602 C 12633.720703 989.077148 12607.237305 974.028809 12585.879883 956.245605 C 12564.522461 938.462891 12547.081055 921.97168 12533.555664 906.771484 L 12640.021484 813.291504 C 12653.25 831.828613 12671.074219 849.952637 12693.494141 867.664063 C 12715.914063 885.375977 12744.146484 894.231445 12778.192383 894.231445 C 12803.581055 894.231445 12823.267578 889.214355 12837.25 879.180176 C 12851.232422 869.145508 12858.224609 857.591309 12858.224609 844.516602 C 12858.224609 832.974609 12853.586914 823.554688 12844.3125 816.257324 C 12835.038086 808.959961 12822.800781 802.574219 12807.601563 797.100098 C 12792.400391 791.625488 12775.300781 786.459961 12756.300781 781.603027 C 12735.020508 775.665527 12712.942383 768.745605 12690.06543 760.842773 C 12667.1875 752.939941 12645.947266 742.52832 12626.34082 729.608398 C 12606.735352 716.688477 12590.852539 700.197266 12578.692383 680.134277 C 12566.532227 660.071289 12560.453125 634.91748 12560.453125 604.671387 C 12560.453125 553.442383 12580.325195 512.209961 12620.071289 480.972656 C 12659.816406 449.735352 12712.297852 434.116699 12777.515625 434.116699 C 12823.116211 434.116699 12864.49707 442.895508 12901.660156 460.452637 C 12938.823242 478.009766 12968.192383 503.431152 12989.769531 536.716797 L 12893.564453 613.328613 C 12879.575195 593.414063 12861.902344 578.024414 12840.544922 567.158203 C 12819.1875 556.292969 12796.729492 550.859863 12773.169922 550.859863 C 12753.873047 550.859863 12737.992188 554.508789 12725.529297 561.805664 C 12713.066406 569.103027 12706.835938 578.528809 12706.835938 590.083008 C 12706.835938 598.134277 12709.720703 604.97168 12715.492188 610.594238 C 12721.263672 616.216797 12731.105469 621.385742 12745.016602 626.100098 C 12758.928711 630.814453 12777.586914 636.211426 12800.992188 642.291504 C 12823.341797 647.611328 12846.675781 654.071289 12870.996094 661.671387 C 12895.31543 669.271484 12918.189453 679.605469 12939.618164 692.674316 C 12961.046875 705.742676 12978.488281 723.106934 12991.942383 744.766602 C 13005.396484 766.426758 13012.124023 793.828125 13012.124023 826.97168 C 13012.124023 864.97168 13002.318359 898.485352 12982.707031 927.51416 C 12963.095703 956.542969 12935.658203 979.191406 12900.395508 995.459961 C 12865.132813 1011.729004 12824.018555 1019.863281 12777.052734 1019.863281 Z M 12217.305664 1019.863281 C 12167.145508 1019.863281 12124.169922 1011.844727 12088.378906 995.807617 C 12052.586914 979.77002 12023.404297 957.994629 12000.830078 930.47998 C 11978.255859 902.965332 11961.761719 871.918457 11951.34668 837.338379 C 11940.932617 802.758301 11935.725586 767.00293 11935.725586 730.071289 C 11935.725586 694.351563 11940.894531 658.973145 11951.231445 623.935547 C 11961.568359 588.898438 11977.492188 557.091797 11999.003906 528.51416 C 12020.515625 499.937012 12048.597656 477.060059 12083.248047 459.882813 C 12117.900391 442.705078 12159.544922 434.116699 12208.185547 434.116699 C 12252.123047 434.116699 12290.621094 441.526855 12323.681641 456.34668 C 12356.742188 471.166992 12384.25293 491.802734 12406.21582 518.254395 C 12428.178711 544.706055 12444.708984 575.714355 12455.805664 611.280273 C 12466.90332 646.845703 12472.451172 685.379883 12472.451172 726.883301 C 12472.451172 733.568848 12472.261719 741.355469 12471.881836 750.244141 C 12471.501953 759.132813 12470.551758 769.276855 12469.03125 780.676758 L 12092.599609 780.676758 C 12096.697266 815.945801 12111.285156 842.091309 12136.365234 859.114258 C 12161.445313 876.137207 12191.542969 884.648438 12226.657227 884.648438 C 12255.085938 884.648438 12283.283203 879.785645 12311.248047 870.060059 C 12339.214844 860.334473 12363.836914 846.428711 12385.117188 828.343262 L 12456.9375 936.856934 C 12429.125977 957.080078 12403.211914 973.310059 12379.194336 985.547363 C 12355.176758 997.784668 12330.438477 1006.562988 12304.978516 1011.883301 C 12279.518555 1017.203125 12250.294922 1019.863281 12217.305664 1019.863281 Z M 12324 663 C 12323.414063 647.794434 12320.78418 637.876953 12315.238281 625.414063 C 12309.693359 612.951172 12301.864258 602.19873 12291.75293 593.155762 C 12281.640625 584.112793 12269.78418 577.044434 12256.181641 571.950195 C 12242.578125 566.855469 12227.648438 564.308594 12211.391602 564.308594 C 12184.791016 564.308594 12162.90332 569.477051 12145.725586 579.814453 C 12128.548828 590.151367 12115.628906 602.99707 12106.96582 618.351563 C 12098.302734 633.706055 12092.832031 649.286133 12090.551758 665.091797 L 12324 665 C 12324 665 12324.035156 663.916016 12324 663 Z"/>
    <path id="path5" fill="#ffffff" fill-rule="evenodd" stroke="none" d="M 11520.091797 1019.863281 C 11470.988281 1019.863281 11428.921875 1007.133301 11393.890625 981.672852 C 11358.859375 956.212891 11332.069336 921.289063 11313.520508 876.899902 C 11294.97168 832.510742 11285.697266 782.351563 11285.697266 726.419922 C 11285.697266 664.099609 11296.185547 611.280273 11317.163086 567.959961 C 11338.140625 524.639648 11366.488281 491.50293 11402.208984 468.54834 C 11437.928711 445.59375 11477.222656 434.116699 11520.091797 434.116699 C 11548.508789 434.116699 11575.5625 440.083984 11601.253906 452.018555 C 11626.946289 463.953125 11649.228516 482.50293 11667.490234 508.109863 C 11674.792969 518.350098 11675 519 11675 519 L 11674.668945 213.419922 L 11830.617188 213.419922 L 11830.617188 1008 L 11674.668945 1008 L 11674 937 C 11674 937 11673.681641 938.978027 11664.87207 950.08252 C 11644.200195 976.140137 11621.628906 994.583984 11596.240234 1004.695801 C 11570.851563 1014.807617 11545.46875 1019.863281 11520.091797 1019.863281 Z M 11566.136719 876.223145 C 11591.834961 876.223145 11613.802734 870.104492 11632.042969 857.867188 C 11650.283203 845.629883 11664.34375 828.263184 11674.223633 805.765625 C 11684.103516 783.268555 11689.042969 756.820313 11689.042969 726.419922 C 11689.042969 696.02002 11684.103516 669.722656 11674.223633 647.52832 C 11664.34375 625.333984 11650.283203 608.121094 11632.042969 595.890137 C 11613.802734 583.658691 11591.834961 577.542969 11566.136719 577.542969 C 11541.056641 577.542969 11519.207031 583.507324 11500.586914 595.435547 C 11481.966797 607.364258 11467.681641 624.425781 11457.730469 646.620117 C 11447.779297 668.814453 11442.803711 695.414063 11442.803711 726.419922 C 11442.803711 757.425781 11447.779297 784.176758 11457.730469 806.674316 C 11467.681641 829.171387 11481.966797 846.387207 11500.586914 858.321289 C 11519.207031 870.255859 11541.056641 876.223145 11566.136719 876.223145 Z M 10972.431641 1019.863281 C 10947.042969 1019.863281 10921.619141 1014.807617 10896.15918 1004.695801 C 10870.699219 994.583984 10849.333008 976.718262 10834 958 C 10821.763672 943.0625 10818 936 10818 936 L 10817.855469 1008 L 10661.888672 1008 L 10661.888672 213.419922 L 10817.855469 213.419922 L 10818 519 C 10818 519 10817.845703 518.958984 10825.140625 508.45752 C 10843.09668 482.609375 10865.728516 464.145996 10891.723633 452.134277 C 10917.717773 440.122559 10944.621094 434.116699 10972.431641 434.116699 C 11015.90625 434.116699 11055.351563 445.59375 11090.769531 468.54834 C 11126.186523 491.50293 11154.380859 524.639648 11175.351563 567.959961 C 11196.323242 611.280273 11206.808594 664.099609 11206.808594 726.419922 C 11206.808594 782.351563 11197.537109 832.510742 11178.994141 876.899902 C 11160.452148 921.289063 11133.662109 956.212891 11098.625 981.672852 C 11063.586914 1007.133301 11021.523438 1019.863281 10972.431641 1019.863281 Z M 10926.369141 876.223145 C 10952.066406 876.223145 10974.070313 870.255859 10992.381836 858.321289 C 11010.693359 846.387207 11024.827148 829.171387 11034.785156 806.674316 C 11044.742188 784.176758 11049.720703 757.425781 11049.720703 726.419922 C 11049.720703 695.414063 11044.742188 668.814453 11034.785156 646.620117 C 11024.827148 624.425781 11010.693359 607.364258 10992.381836 595.435547 C 10974.070313 583.507324 10952.066406 577.542969 10926.369141 577.542969 C 10901.289063 577.542969 10879.477539 583.658691 10860.93457 595.890137 C 10842.391602 608.121094 10828.180664 625.333984 10818.300781 647.52832 C 10808.419922 669.722656 10803.480469 696.02002 10803.480469 726.419922 C 10803.480469 756.820313 10808.419922 783.268555 10818.300781 805.765625 C 10828.180664 828.263184 10842.391602 845.629883 10860.93457 857.867188 C 10879.477539 870.104492 10901.289063 876.223145 10926.369141 876.223145 Z M 10299.825195 1019.863281 C 10249.665039 1019.863281 10206.689453 1011.844727 10170.898438 995.807617 C 10135.106445 979.77002 10105.923828 957.994629 10083.349609 930.47998 C 10060.775391 902.965332 10044.28125 871.918457 10033.866211 837.338379 C 10023.452148 802.758301 10018.245117 767.00293 10018.245117 730.071289 C 10018.245117 694.351563 10023.413086 658.973145 10033.750977 623.935547 C 10044.087891 588.898438 10060.011719 557.091797 10081.523438 528.51416 C 10103.035156 499.937012 10131.116211 477.060059 10165.767578 459.882813 C 10200.419922 442.705078 10242.064453 434.116699 10290.705078 434.116699 C 10334.642578 434.116699 10373.140625 441.526855 10406.201172 456.34668 C 10439.261719 471.166992 10466.772461 491.802734 10488.735352 518.254395 C 10510.698242 544.706055 10527.228516 575.714355 10538.325195 611.280273 C 10549.422852 646.845703 10554.970703 685.379883 10554.970703 726.883301 C 10554.970703 733.568848 10554.78125 741.355469 10554.401367 750.244141 C 10554.021484 759.132813 10553.071289 769.276855 10551.550781 780.676758 L 10175.119141 780.676758 C 10179.216797 815.945801 10193.804688 842.091309 10218.884766 859.114258 C 10243.964844 876.137207 10274.061523 884.648438 10309.176758 884.648438 C 10337.605469 884.648438 10365.802734 879.785645 10393.767578 870.060059 C 10421.733398 860.334473 10446.356445 846.428711 10467.636719 828.343262 L 10539.456055 936.856934 C 10511.644531 957.080078 10485.731445 973.310059 10461.713867 985.547363 C 10437.696289 997.784668 10412.958008 1006.562988 10387.498047 1011.883301 C 10362.038086 1017.203125 10332.813477 1019.863281 10299.825195 1019.863281 Z M 10406 665 C 10406.264648 649.991699 10403.303711 637.876953 10397.757813 625.414063 C 10392.212891 612.951172 10384.383789 602.19873 10374.272461 593.155762 C 10364.160156 584.112793 10352.303711 577.044434 10338.701172 571.950195 C 10325.097656 566.855469 10310.167969 564.308594 10293.911133 564.308594 C 10267.310547 564.308594 10245.422852 569.477051 10228.245117 579.814453 C 10211.068359 590.151367 10198.148438 602.99707 10189.485352 618.351563 C 10180.822266 633.706055 10175.351563 649.286133 10173.071289 665.091797 L 10406 665 C 10406 665 10405.999023 665.040039 10406 665 Z M 9320.799805 1008 L 9145.240234 445.97998 L 9311.679688 445.97998 L 9399.228516 767.228516 L 9490.891602 445.97998 L 9623.808594 445.97998 L 9715.47168 764.948242 L 9804.160156 445.97998 L 9971.508789 445.97998 L 9794.808594 1008 L 9655.728516 1008 L 9557.919922 668.957031 L 9461.928711 1008 Z"/>
    <path id="ms-bolt" fill="#ffffff" fill-rule="evenodd" stroke="none" d="M 0.522814 1406.341187 L 1298.360474 2155.380371 L 1484.040527 1833.658203 L 556.791443 1298.501831 L 1483.32959 763.373657 L 1297.550049 441.708984 L 0.245203 1190.975342 L 0.698199 1191.759766 L -0.235325 1191.759888 L -0.202279 1405.349121 L 1.095471 1405.348999 L 0.522814 1406.341187 Z M 5047.327148 2154.237549 C 4925.197266 2154.256348 4818.215332 2136.556396 4726.377441 2101.136475 C 4634.540039 2065.717041 4557.197754 2021.493652 4494.348633 1968.465576 C 4431.5 1915.4375 4380.44873 1864.411133 4341.193848 1815.384277 L 4624.643066 1567.94812 C 4664.352539 1629.89502 4719.313965 1687.162964 4789.527832 1739.754517 C 4859.742188 1792.346191 4946.771973 1818.633545 5050.618652 1818.617432 C 5132.629883 1818.604736 5196.816895 1801.983887 5243.180664 1768.75415 C 5289.544434 1735.524414 5312.722168 1695.07251 5312.714844 1647.397949 C 5312.708496 1606.374512 5297.76416 1573.390015 5267.880859 1548.442871 C 5237.997559 1523.495728 5198.538086 1502.21582 5149.502441 1484.602051 C 5100.466797 1466.988281 5045.860352 1450.612305 4985.681152 1435.472656 C 4923.272949 1418.557495 4858.976074 1398.622314 4792.788574 1375.665527 C 4726.601074 1352.709351 4665.533203 1322.848145 4609.581543 1286.082397 C 4553.629883 1249.31604 4508.377441 1202.189087 4473.823242 1144.698975 C 4439.268066 1087.209106 4421.984375 1015.456909 4421.971191 929.44043 C 4421.948242 782.759644 4478.875977 664.619385 4592.755859 575.015503 C 4706.635254 485.411621 4856.729004 440.596191 5043.039551 440.567383 C 5174.537109 440.547119 5294.117676 466.376709 5401.786133 518.056641 C 5509.454102 569.737061 5594.270996 645.283325 5656.23877 744.697876 L 5399.527344 946.631714 C 5357.589355 883.361938 5304.083496 835.461304 5239.008789 802.927856 C 5173.93457 770.394165 5104.623535 754.133423 5031.07373 754.144775 C 4966.89209 754.154663 4913.848145 766.647339 4871.941406 791.623291 C 4830.033691 816.599243 4809.083496 849.580078 4809.089844 890.568848 C 4809.094238 919.995361 4818.796875 944.510376 4838.197266 964.113403 C 4857.597168 983.716431 4889.141602 1001.210693 4932.832031 1016.596436 C 4976.521484 1031.982056 5033.574219 1048.584229 5103.992188 1066.403442 C 5170.405273 1081.994385 5239.272461 1100.928345 5310.596191 1123.204834 C 5381.92041 1145.481445 5448.674316 1175.445801 5510.859375 1213.098877 C 5573.044434 1250.751953 5623.537598 1300.777588 5662.341797 1363.177246 C 5701.145996 1425.576904 5720.555664 1504.920288 5720.570313 1601.209961 C 5720.587402 1710.419678 5692.629883 1806.703735 5636.696777 1890.064697 C 5580.76416 1973.425903 5502.316406 2038.288818 5401.349609 2084.65625 C 5300.382324 2131.023193 5182.376465 2154.216797 5047.327148 2154.237549 Z M 1725.022095 2121.999268 L 1724.76709 473.832764 L 2141.30127 473.768311 C 2141.30127 473.768311 2140.019775 701.786255 2141.348633 699.244507 C 2174.439209 635.94519 2215.894775 589.112793 2267.359375 549.648682 C 2318.823975 510.184326 2373.197266 482.203613 2430.481201 465.705811 C 2487.764893 449.207031 2544.491943 440.953857 2600.663818 440.945068 C 2686.227783 440.931885 2768.240723 457.190918 2846.705322 489.721924 C 2925.169922 522.253174 2993.0896 577.424316 3051.001953 654.836548 C 3067.328613 676.660645 3071.50415 685.839966 3072.854736 688.80957 C 3073.390381 689.987061 3073.481934 690.18811 3073.710693 689.813721 C 3131.511719 595.2771 3207.457764 538.925293 3291.031006 499.682861 C 3374.603516 460.439941 3462.513672 440.811768 3554.763672 440.797363 C 3696.082275 440.775635 3810.318115 471.733887 3897.476563 533.67334 C 3984.634033 595.612183 4048.835693 675.280151 4090.083008 772.677612 C 4131.330566 870.075562 4151.962891 973.377319 4151.979492 1082.587036 L 4152.140625 2121.623779 L 3736.911865 2121.687988 L 3736.766602 1183.624634 C 3736.753662 1099.802246 3726.382568 1029.47644 3705.65332 972.646484 C 3684.924072 915.815796 3654.158691 873.03064 3613.35791 844.289551 C 3572.555908 815.547729 3520.518066 801.182495 3457.241455 801.192261 C 3389.020752 801.202881 3331.85083 818.928589 3285.731689 854.369507 C 3239.611572 889.810425 3204.856934 943.53186 3181.46582 1015.535278 C 3158.075439 1087.538696 3146.388428 1178.352661 3146.405273 1287.980469 L 3146.53418 2121.779297 L 2731.985352 2121.843506 L 2731.838867 1174.377563 C 2731.81958 1049.566772 2708.507568 956.189819 2661.90332 894.243774 C 2615.298584 832.298584 2548.98877 801.332886 2462.972168 801.346191 C 2393.42749 801.356934 2334.699463 819.308716 2286.786621 855.203369 C 2238.873779 891.097046 2202.664795 944.818726 2178.159424 1016.369751 C 2153.654053 1087.919922 2141.410156 1178.508179 2141.427246 1288.135864 L 2141.556152 2121.934814 L 1725.022095 2121.999268 Z"/>
    <path id="ms-bolt-copy" fill="#ffffff" fill-rule="evenodd" stroke="none" d="M 5992.105957 2598.844971 L 6936.34375 137.883301 L 6577.685059 0.270752 L 5633.446777 2461.232422 L 5992.105957 2598.844971 Z M 8412.829102 1405.039673 L 7115.223145 2154.480469 L 6929.443359 1832.815674 L 7856.526855 1297.372559 L 6929.822754 762.531006 L 7115.503418 440.808838 L 8413.040039 1189.673706 L 8412.586914 1190.458252 L 8413.520508 1190.45813 L 8413.553711 1404.047485 L 8412.255859 1404.047607 L 8412.829102 1405.039673 Z"/>
</svg>
