<?xml version="1.0" encoding="UTF-8"?>
<!-- Generated by Pixelmator Pro 3.7 -->
<svg width="4532" height="1399" viewBox="0 0 4532 1399" xmlns="http://www.w3.org/2000/svg">
    <path id="ms-bolt" fill="#ffffff" fill-rule="evenodd" stroke="none" d="M 3736.751465 74.15332 L 3228.15332 1399.097046 L 3035.056641 1324.974243 L 3543.655029 0.030518 L 3736.751465 74.15332 Z M 701 1159.937378 L 2.285217 756.53418 L 2.593628 756 L 1.894897 756 L 1.894897 641 L 2.397522 641 L 2.153687 640.577637 L 700.706421 237.268311 L 800.706421 410.473389 L 301.798401 698.518066 L 801 986.7323 L 701 1159.937378 Z M 3832.89502 1159.937378 L 4531.609863 756.53418 L 4531.30127 756 L 4532 756 L 4532 641 L 4531.497559 641 L 4531.741211 640.577637 L 3833.188721 237.268311 L 3733.188477 410.473389 L 4232.09668 698.518066 L 3732.89502 986.7323 L 3832.89502 1159.937378 Z M 2546.705566 1131.01709 C 2596.149658 1150.095459 2653.749023 1159.634277 2719.505859 1159.634277 C 2792.218506 1159.634277 2855.756836 1147.156494 2910.123047 1122.200073 C 2964.489014 1097.24353 3006.732178 1062.326782 3036.854004 1017.448364 C 3066.976318 972.570129 3082.037109 920.731506 3082.037109 861.931213 C 3082.037109 810.08728 3071.593262 767.365845 3050.705566 733.765625 C 3029.818115 700.165405 3002.635742 673.226563 2969.157471 652.948364 C 2935.679199 632.670166 2899.740234 616.53125 2861.340088 604.53125 C 2822.939941 592.53125 2785.862305 582.331177 2750.105713 573.931213 C 2712.193115 564.331177 2681.476318 555.387573 2657.954346 547.100037 C 2634.432129 538.8125 2617.449463 529.390625 2607.005859 518.834412 C 2596.562012 508.278198 2591.340088 495.078125 2591.340088 479.234375 C 2591.340088 457.165405 2602.622803 439.409668 2625.188721 425.965698 C 2647.75415 412.521729 2676.314941 405.799927 2710.871338 405.799927 C 2750.47168 405.799927 2787.788574 414.560791 2822.822754 432.082886 C 2857.857422 449.604797 2886.661865 475.39978 2909.236816 509.46875 L 3047.471191 400.765625 C 3014.11499 347.234009 2968.45459 306.551636 2910.488525 278.717041 C 2852.522461 250.882813 2788.140381 236.965698 2717.340088 236.965698 C 2617.027344 236.965698 2536.210693 261.08252 2474.888672 309.317261 C 2413.566406 357.552002 2382.905762 421.155884 2382.905762 500.131287 C 2382.905762 546.44397 2392.205566 585.077942 2410.805908 616.034302 C 2429.405762 646.990845 2453.766357 672.36853 2483.888672 692.168823 C 2514.010742 711.96875 2546.888428 728.051636 2582.522949 740.417114 C 2618.157471 752.782959 2652.77417 763.521729 2686.374512 772.634338 C 2718.774658 780.790771 2748.174316 789.612427 2774.574463 799.100037 C 2800.974609 808.587646 2822.218262 820.048401 2838.305908 833.482849 C 2854.393555 846.917297 2862.437012 864.677979 2862.437012 886.765625 C 2862.437012 912.434448 2849.954346 934.212463 2824.988525 952.100037 C 2800.022949 969.98761 2765.462158 978.931213 2721.305908 978.931213 C 2665.393066 978.931213 2618.537109 964.770386 2580.736816 936.448364 C 2542.937012 908.126343 2513.349609 877.28772 2491.974609 843.931213 L 2339.340088 977.131287 C 2360.471436 1003.531433 2387.954102 1031.009155 2421.788574 1059.565552 C 2455.623047 1088.121948 2497.261719 1111.938965 2546.705566 1131.01709 Z M 930.724487 254.599854 L 930.724487 1142 L 1154.993286 1142 L 1154.993286 693.068848 C 1154.993286 634.043457 1161.59314 585.270264 1174.793213 546.748535 C 1187.993286 508.226318 1207.493164 479.304688 1233.293213 459.98291 C 1259.093384 440.660645 1290.714966 431 1328.158936 431 C 1374.47168 431 1410.171387 447.677979 1435.259033 481.03418 C 1460.346436 514.390869 1472.890137 564.668457 1472.890137 631.868652 L 1472.890137 1142 L 1696.090088 1142 L 1696.090088 693.068848 C 1696.090088 634.043457 1702.390137 585.148682 1714.98999 546.382813 C 1727.590088 507.616943 1746.307129 478.695313 1771.141846 459.617188 C 1795.976074 440.539063 1826.758789 431 1863.48999 431 C 1897.559082 431 1925.575928 438.73877 1947.542114 454.217285 C 1969.507446 469.695313 1986.068481 492.734131 1997.224731 523.334473 C 2008.380981 553.934326 2013.959106 591.799805 2013.959106 636.931152 L 2013.959106 1142 L 2237.525146 1142 L 2237.525146 582.56543 C 2237.525146 523.765137 2226.425049 468.144043 2204.224854 415.699951 C 2182.024658 363.256104 2147.464111 320.356201 2100.542236 287 C 2053.619873 253.643555 1992.115845 236.965576 1916.027588 236.965576 C 1866.358643 236.965576 1819.024658 247.526367 1774.024658 268.648438 C 1729.02417 289.770264 1688.128906 320.104736 1657 371 C 1656.876709 371.201538 1656.827515 371.093262 1656.539185 370.459229 C 1655.812256 368.860229 1653.564819 363.917603 1644.776123 352.165771 C 1613.601563 310.480957 1577.037109 280.770264 1534.793213 263.248291 C 1492.549316 245.726563 1448.393555 236.965576 1402.324463 236.965576 C 1372.080566 236.965576 1341.537109 241.404541 1310.693237 250.282959 C 1279.849243 259.160889 1250.571411 274.22168 1222.858765 295.465576 C 1195.146118 316.709473 1172.821777 341.921387 1155 376 C 1154.284302 377.368408 1154.993286 254.599854 1154.993286 254.599854 L 930.724487 254.599854 Z"/>
</svg>
